<?xml version="1.0" encoding="UTF-8"?>
<svg xmlns="http://www.w3.org/2000/svg" viewBox="0 0 1400 1000" font-family="ui-monospace,Menlo,Consolas,monospace">
  <!-- ============ STYLES ============ -->
  <defs>
    <style><![CDATA[
      .bg      { fill:#0f1420; }
      .panel   { fill:#1a2030; stroke:#2a3550; stroke-width:1.5; rx:10; ry:10; }
      .block   { fill:#202840; stroke:#3a4870; stroke-width:1.5; rx:8; ry:8; }
      .title   { fill:#e8ecf5; font-size:20px; font-weight:700; }
      .subtitle{ fill:#9aa3b8; font-size:12px; }
      .section { fill:#7dd3fc; font-size:13px; font-weight:700; letter-spacing:1px; }
      .label   { fill:#e8ecf5; font-size:12px; font-weight:600; }
      .small   { fill:#a8b0c4; font-size:10px; }
      .pin     { fill:#fbbf24; font-size:10px; font-weight:700; }
      .note    { fill:#94a3b8; font-size:10px; font-style:italic; }
      .v24raw     { stroke:#ef4444; stroke-width:2.5; fill:none; }
      .v24sw      { stroke:#22c55e; stroke-width:2.5; fill:none; }
      .v12        { stroke:#f59e0b; stroke-width:2.5; fill:none; }
      .v5         { stroke:#10b981; stroke-width:2.5; fill:none; }
      .gnd        { stroke:#94a3b8; stroke-width:2.5; fill:none; }
      .signal     { stroke:#a78bfa; stroke-width:2; fill:none; stroke-dasharray:4,3; }
      .pulldown   { stroke:#64748b; stroke-width:1.8; fill:none; stroke-dasharray:2,2; }
      .diode      { stroke:#fb7185; stroke-width:2; fill:none; }
      .dot     { fill:#fbbf24; }
      .legendbox { fill:#161b2a; stroke:#2a3550; rx:8; ry:8; }
    ]]></style>
    <marker id="arrow" viewBox="0 0 10 10" refX="9" refY="5" markerWidth="7" markerHeight="7" orient="auto">
      <path d="M0,0 L10,5 L0,10 z" fill="#a78bfa"/>
    </marker>
  </defs>

  <!-- ============ BACKGROUND ============ -->
  <rect class="bg" width="1400" height="1000"/>

  <!-- ============ HEADER ============ -->
  <text class="title" x="700" y="36" text-anchor="middle">RS50 Thermal Controller — Wiring Schematic v3.3.1</text>
  <text class="subtitle" x="700" y="56" text-anchor="middle">Topologia fail-safe • Relé NC corta apenas +24V • GND direto • Motor isolado do relé</text>

  <!-- ============================================================ -->
  <!-- SEÇÃO 1: FLUXO DE POTÊNCIA                                    -->
  <!-- ============================================================ -->
  <text class="section" x="30" y="92">▼ FLUXO DE POTÊNCIA</text>
  <text class="subtitle" x="200" y="92">chaveamento do +24V para a MKS • GND direto da fonte</text>

  <!-- XT60 / Fonte -->
  <rect class="block" x="30" y="110" width="180" height="110"/>
  <text class="label" x="120" y="135" text-anchor="middle">XT60 / Fonte</text>
  <text class="small" x="120" y="152" text-anchor="middle">24V DC</text>
  <text class="small" x="120" y="168" text-anchor="middle">PSU original RS50</text>
  <text class="small" x="120" y="183" text-anchor="middle">(volante RS50)</text>
  <circle class="dot" cx="210" cy="160" r="4"/>
  <text class="pin" x="200" y="155" text-anchor="end">+</text>
  <circle class="dot" cx="210" cy="200" r="4"/>
  <text class="pin" x="200" y="215" text-anchor="end">−</text>

  <!-- Relé Songle -->
  <rect class="block" x="380" y="110" width="260" height="180"/>
  <text class="label" x="510" y="135" text-anchor="middle">SONGLE SLA-24VDC-SL-C</text>
  <text class="small" x="510" y="152" text-anchor="middle">Relé NC • SPDT • 30A</text>
  <text class="small" x="510" y="167" text-anchor="middle">bobina 24V (~400Ω)</text>

  <circle class="dot" cx="380" cy="190" r="4"/>
  <text class="pin" x="395" y="194">COM</text>
  <text class="small" x="395" y="208">(pino 3)</text>

  <circle class="dot" cx="640" cy="190" r="4"/>
  <text class="pin" x="625" y="194" text-anchor="end">NC</text>
  <text class="small" x="625" y="208" text-anchor="end">(pino 4)</text>

  <text class="note" x="510" y="240" text-anchor="middle">repouso = COM↔NC fechado</text>
  <circle class="dot" cx="640" cy="260" r="4" opacity="0.4"/>
  <text class="small" x="625" y="264" text-anchor="end" opacity="0.5">NA n/c</text>
  <text class="note" x="510" y="280" text-anchor="middle">▼ bobina (controle abaixo)</text>

  <!-- MKS XDrive -->
  <rect class="block" x="800" y="110" width="220" height="180"/>
  <text class="label" x="910" y="135" text-anchor="middle">MKS XDrive Mini 1.0</text>
  <text class="small" x="910" y="152" text-anchor="middle">(ODESC FFBeast firmware)</text>

  <circle class="dot" cx="800" cy="180" r="4"/>
  <text class="pin" x="815" y="184">VIN+</text>
  <text class="small" x="815" y="198">(24V chaveado)</text>

  <circle class="dot" cx="800" cy="230" r="4"/>
  <text class="pin" x="815" y="234">GND</text>
  <text class="small" x="815" y="248">(direto da fonte)</text>

  <text class="note" x="910" y="280" text-anchor="middle">▼ saída trifásica U/V/W</text>

  <!-- Motor -->
  <circle cx="1180" cy="200" r="70" fill="#202840" stroke="#3a4870" stroke-width="1.5"/>
  <text class="label" x="1180" y="195" text-anchor="middle">MOTOR BLDC</text>
  <text class="small" x="1180" y="212" text-anchor="middle">Hoverboard 15Nm</text>
  <text class="small" x="1180" y="226" text-anchor="middle">(não toca no relé)</text>

  <!-- Fios potência -->
  <!-- +24V XT60 → COM -->
  <path class="v24raw" d="M210,160 L300,160 L300,190 L380,190"/>
  <text class="small" x="295" y="152" fill="#ef4444">+24V</text>
  <!-- branch +24V → bobina B1 -->
  <path class="v24raw" d="M300,190 L300,560"/>
  <text class="small" x="305" y="430" fill="#ef4444">→ Bob+</text>

  <!-- NC → MKS VIN+ -->
  <path class="v24sw" d="M640,190 L800,180"/>
  <text class="small" x="720" y="178" fill="#22c55e" text-anchor="middle">+24V chaveado</text>

  <!-- MKS U/V/W → Motor -->
  <path class="v24sw" d="M1020,170 L1110,170" stroke="#22c55e"/>
  <text class="pin" x="1030" y="162">U</text>
  <path class="v24sw" d="M1020,200 L1110,200" stroke="#22c55e"/>
  <text class="pin" x="1030" y="192">V</text>
  <path class="v24sw" d="M1020,230 L1110,230" stroke="#22c55e"/>
  <text class="pin" x="1030" y="222">W</text>

  <!-- GND XT60 → MKS (direto, não passa pelo relé) -->
  <path class="gnd" d="M210,200 L260,200 L260,400 L780,400 L780,230 L800,230"/>
  <rect x="350" y="390" width="200" height="22" fill="#161b2a" stroke="#94a3b8" rx="4"/>
  <text class="small" x="450" y="405" text-anchor="middle" fill="#94a3b8">GND DIRETO (não passa no relé)</text>

  <!-- ============================================================ -->
  <!-- SEÇÃO 2: REGULADORES DC-DC                                    -->
  <!-- ============================================================ -->
  <text class="section" x="30" y="460">▼ REGULADORES DC-DC</text>
  <text class="subtitle" x="220" y="460">escada 24V → 12V → 5V para alimentar lógica e fan</text>

  <!-- HW-411 #1 -->
  <rect class="block" x="30" y="480" width="240" height="100"/>
  <text class="label" x="150" y="505" text-anchor="middle">HW-411 #1 (LM2596)</text>
  <text class="small" x="150" y="522" text-anchor="middle">24V → 12V (3A)</text>
  <text class="small" x="150" y="538" text-anchor="middle">VR ajustado para 12.0V (multímetro)</text>

  <circle class="dot" cx="30" cy="530" r="4"/>
  <text class="pin" x="45" y="534">IN+</text>
  <circle class="dot" cx="30" cy="560" r="4"/>
  <text class="pin" x="45" y="564">IN−</text>
  <circle class="dot" cx="270" cy="530" r="4"/>
  <text class="pin" x="255" y="534" text-anchor="end">OUT+</text>
  <circle class="dot" cx="270" cy="560" r="4"/>
  <text class="pin" x="255" y="564" text-anchor="end">OUT−</text>

  <!-- 24V do barramento → IN+ do HW-411 #1 -->
  <path class="v24raw" d="M300,560 L300,530 L30,530"/>

  <!-- HW-411 #2 -->
  <rect class="block" x="340" y="480" width="240" height="100"/>
  <text class="label" x="460" y="505" text-anchor="middle">HW-411 #2 (LM2596)</text>
  <text class="small" x="460" y="522" text-anchor="middle">12V → 5V</text>
  <text class="small" x="460" y="538" text-anchor="middle">VR ajustado para 5.0V (multímetro)</text>

  <circle class="dot" cx="340" cy="530" r="4"/>
  <text class="pin" x="355" y="534">IN+</text>
  <circle class="dot" cx="340" cy="560" r="4"/>
  <text class="pin" x="355" y="564">IN−</text>
  <circle class="dot" cx="580" cy="530" r="4"/>
  <text class="pin" x="565" y="534" text-anchor="end">OUT+</text>
  <circle class="dot" cx="580" cy="560" r="4"/>
  <text class="pin" x="565" y="564" text-anchor="end">OUT−</text>

  <!-- +12V do #1 → IN+ do #2 + Fan -->
  <path class="v12" d="M270,530 L340,530"/>
  <text class="small" x="305" y="522" fill="#f59e0b" text-anchor="middle">+12V</text>
  <path class="v12" d="M305,530 L305,720"/>
  <text class="small" x="310" y="650" fill="#f59e0b">→ +12V fan</text>

  <!-- +5V do #2 → trilho ESP/WS2812 -->
  <path class="v5" d="M580,530 L1300,530 L1300,720"/>
  <text class="small" x="900" y="522" fill="#10b981">+5V</text>
  <text class="small" x="900" y="545" fill="#10b981" font-style="italic">trilha +5V (ESP + WS2812)</text>

  <!-- GND comum reguladores -->
  <path class="gnd" d="M30,560 L20,560 L20,820"/>
  <path class="gnd" d="M270,560 L290,560"/>
  <path class="gnd" d="M340,560 L290,560 L290,820"/>
  <path class="gnd" d="M580,560 L600,560 L600,820"/>

  <!-- ============================================================ -->
  <!-- SEÇÃO 3: MCU E PERIFÉRICOS                                    -->
  <!-- ============================================================ -->
  <text class="section" x="30" y="640">▼ MCU E PERIFÉRICOS</text>
  <text class="subtitle" x="200" y="640">ESP32-S3-Zero, NTC, driver do relé, fan e LEDs de status</text>

  <!-- ESP32 -->
  <rect class="block" x="30" y="660" width="220" height="220"/>
  <text class="label" x="140" y="685" text-anchor="middle">ESP32-S3-Zero</text>
  <text class="small" x="140" y="700" text-anchor="middle">Waveshare</text>

  <circle class="dot" cx="30" cy="720" r="4"/>
  <text class="pin" x="45" y="724">5V</text>
  <text class="small" x="45" y="738">←  +5V do Mini-360 #2</text>

  <circle class="dot" cx="30" cy="755" r="4"/>
  <text class="pin" x="45" y="759">GND</text>
  <text class="small" x="45" y="773">←  GND comum</text>

  <circle class="dot" cx="30" cy="790" r="4"/>
  <text class="pin" x="45" y="794">3V3</text>
  <text class="small" x="45" y="808">→  topo do divisor NTC</text>

  <circle class="dot" cx="250" cy="720" r="4"/>
  <text class="pin" x="240" y="724" text-anchor="end">GPIO 1</text>
  <text class="small" x="240" y="708" text-anchor="end">←  NTC ADC</text>

  <circle class="dot" cx="250" cy="760" r="4"/>
  <text class="pin" x="240" y="764" text-anchor="end">GPIO 4</text>
  <text class="small" x="240" y="748" text-anchor="end">→ Gate MOSFET</text>

  <circle class="dot" cx="250" cy="800" r="4"/>
  <text class="pin" x="240" y="804" text-anchor="end">GPIO 5</text>
  <text class="small" x="240" y="788" text-anchor="end">→ PWM Fan</text>

  <circle class="dot" cx="250" cy="840" r="4"/>
  <text class="pin" x="240" y="844" text-anchor="end">GPIO 9</text>
  <text class="small" x="240" y="828" text-anchor="end">→ Data WS2812</text>

  <text class="note" x="140" y="868" text-anchor="middle">/!\ GPIO21 = LED RGB onboard (não usar)</text>

  <!-- Divisor NTC -->
  <rect class="block" x="290" y="660" width="200" height="220"/>
  <text class="label" x="390" y="685" text-anchor="middle">DIVISOR NTC</text>
  <text class="small" x="390" y="700" text-anchor="middle">NTC 100k B3950 (vidro)</text>

  <text class="pin" x="390" y="722" text-anchor="middle">3V3</text>
  <line x1="390" y1="730" x2="390" y2="750" class="signal" stroke-dasharray="0"/>
  <rect x="370" y="750" width="40" height="18" fill="#161b2a" stroke="#a78bfa"/>
  <text class="small" x="390" y="763" text-anchor="middle">100kΩ</text>
  <line x1="390" y1="768" x2="390" y2="790" class="signal" stroke-dasharray="0"/>

  <!-- nó GPIO1 -->
  <circle class="dot" cx="390" cy="790" r="4"/>
  <text class="small" x="400" y="788">→ GPIO1 (ADC)</text>

  <!-- cap 100nF para GND -->
  <line x1="430" y1="790" x2="450" y2="790" class="signal" stroke-dasharray="0"/>
  <line x1="450" y1="784" x2="450" y2="796" stroke="#a78bfa" stroke-width="2"/>
  <line x1="455" y1="784" x2="455" y2="796" stroke="#a78bfa" stroke-width="2"/>
  <text class="small" x="470" y="794">100nF</text>
  <line x1="452" y1="800" x2="452" y2="820" class="gnd"/>

  <!-- NTC para GND -->
  <line x1="390" y1="790" x2="390" y2="810" class="signal" stroke-dasharray="0"/>
  <rect x="370" y="810" width="40" height="22" fill="#161b2a" stroke="#a78bfa"/>
  <text class="small" x="390" y="826" text-anchor="middle">NTC</text>
  <line x1="390" y1="832" x2="390" y2="855" class="gnd"/>
  <text class="small" x="390" y="868" text-anchor="middle">⊥ GND comum</text>

  <!-- Sinal GPIO1 → divisor -->
  <path class="signal" d="M250,720 L290,720 L290,790 L386,790"/>

  <!-- Driver do relé -->
  <rect class="block" x="540" y="660" width="280" height="220"/>
  <text class="label" x="680" y="685" text-anchor="middle">DRIVER DO RELÉ</text>
  <text class="small" x="680" y="700" text-anchor="middle">IRLZ44N + Bobina + Flyback 1N4007</text>

  <!-- MOSFET -->
  <rect x="560" y="730" width="110" height="120" fill="#161b2a" stroke="#3a4870"/>
  <text class="label" x="615" y="752" text-anchor="middle">IRLZ44N</text>

  <circle class="dot" cx="560" cy="770" r="4"/>
  <text class="pin" x="575" y="774">G</text>
  <text class="small" x="575" y="788">Gate</text>

  <circle class="dot" cx="670" cy="770" r="4"/>
  <text class="pin" x="655" y="774" text-anchor="end">D</text>
  <text class="small" x="655" y="788" text-anchor="end">Dreno</text>

  <circle class="dot" cx="615" cy="850" r="4"/>
  <text class="pin" x="615" y="868" text-anchor="middle">S (Source)</text>

  <!-- Gate path: GPIO4 → 220Ω → Gate -->
  <path class="signal" d="M250,760 L500,760 L500,770 L560,770"/>
  <rect x="510" y="763" width="40" height="14" fill="#161b2a" stroke="#a78bfa"/>
  <text class="small" x="530" y="774" text-anchor="middle">220Ω</text>

  <!-- Pull-down 10k Gate→GND -->
  <line x1="540" y1="770" x2="540" y2="820" class="pulldown"/>
  <rect x="525" y="800" width="30" height="14" fill="#161b2a" stroke="#64748b"/>
  <text class="small" x="540" y="811" text-anchor="middle">10kΩ</text>
  <line x1="540" y1="820" x2="540" y2="850" class="gnd"/>
  <text class="small" x="495" y="838" text-anchor="middle" fill="#64748b">pull-down</text>

  <!-- Source → GND -->
  <line x1="615" y1="850" x2="615" y2="870" class="gnd"/>
  <line x1="615" y1="870" x2="20" y2="870" class="gnd"/>

  <!-- Bobina -->
  <rect x="700" y="730" width="100" height="120" fill="#161b2a" stroke="#3a4870"/>
  <text class="label" x="750" y="752" text-anchor="middle">Bobina + 1N4007</text>

  <!-- B1 (topo bobina) -->
  <circle class="dot" cx="750" cy="770" r="4"/>
  <text class="pin" x="750" y="765" text-anchor="middle">B1</text>
  <text class="small" x="750" y="783" text-anchor="middle">(+24V, COM)</text>

  <!-- Símbolo bobina -->
  <path d="M740,790 q5,-8 10,0 q5,-8 10,0 q5,-8 10,0" fill="none" stroke="#ef4444" stroke-width="2"/>

  <!-- B2 (base bobina) -->
  <circle class="dot" cx="750" cy="820" r="4"/>
  <text class="pin" x="750" y="838" text-anchor="middle">B2</text>
  <text class="small" x="750" y="852" text-anchor="middle">(Drain)</text>

  <!-- Diodo flyback (cátodo em B1 / +24V, anodo em B2 / Drain) -->
  <!-- Triângulo apontando pra cima (anodo embaixo, cátodo em cima) -->
  <polygon points="785,810 800,810 792.5,795" fill="none" stroke="#fb7185" stroke-width="2"/>
  <line x1="785" y1="795" x2="800" y2="795" stroke="#fb7185" stroke-width="3"/>
  <text class="small" x="815" y="793" fill="#fb7185">CÁTODO</text>
  <text class="small" x="815" y="805" fill="#fb7185" font-style="italic">(faixa)</text>
  <text class="small" x="815" y="817" fill="#fb7185">ANODO</text>

  <!-- Conexões diodo -->
  <line x1="792.5" y1="795" x2="792.5" y2="770" class="diode"/>
  <line x1="792.5" y1="770" x2="750" y2="770" class="diode"/>
  <line x1="792.5" y1="810" x2="792.5" y2="820" class="diode"/>
  <line x1="792.5" y1="820" x2="750" y2="820" class="diode"/>

  <!-- B1 → +24V (vai pro nó vermelho) -->
  <path class="v24raw" d="M750,770 L730,770 L730,690 L300,690 L300,560"/>
  <text class="small" x="500" y="682" fill="#ef4444">Bob+ → +24V (mesmo trilho do COM)</text>

  <!-- B2 → Drain do MOSFET -->
  <path class="v24raw" d="M750,820 L700,820 L700,780 L670,780 L670,770"/>

  <!-- Fan -->
  <rect class="block" x="870" y="660" width="180" height="220"/>
  <text class="label" x="960" y="685" text-anchor="middle">FAN 12V PWM</text>
  <text class="small" x="960" y="700" text-anchor="middle">120mm 4-pin (PWM nativo)</text>

  <circle class="dot" cx="870" cy="730" r="4"/>
  <text class="pin" x="885" y="734">+12V</text>
  <circle class="dot" cx="870" cy="770" r="4"/>
  <text class="pin" x="885" y="774">GND</text>
  <circle class="dot" cx="870" cy="810" r="4"/>
  <text class="pin" x="885" y="814">PWM</text>
  <text class="small" x="885" y="828">3.3V direto, sem MOSFET</text>
  <text class="small" x="885" y="848">TACH (n/c)</text>

  <path class="v12" d="M305,720 L305,730 L870,730"/>
  <line x1="870" y1="770" x2="850" y2="770" class="gnd"/>
  <line x1="850" y1="770" x2="850" y2="870" class="gnd"/>
  <path class="signal" d="M250,800 L460,800 L460,810 L870,810"/>

  <!-- WS2812 -->
  <rect class="block" x="1080" y="660" width="220" height="220"/>
  <text class="label" x="1190" y="685" text-anchor="middle">WS2812 Strip</text>
  <text class="small" x="1190" y="700" text-anchor="middle">1, 3 ou 5 LEDs (status)</text>

  <circle class="dot" cx="1080" cy="730" r="4"/>
  <text class="pin" x="1095" y="734">5V</text>
  <circle class="dot" cx="1080" cy="770" r="4"/>
  <text class="pin" x="1095" y="774">GND</text>
  <circle class="dot" cx="1080" cy="810" r="4"/>
  <text class="pin" x="1095" y="814">DIN</text>

  <line x1="1300" y1="720" x2="1080" y2="730" class="v5"/>
  <line x1="1080" y1="770" x2="1060" y2="770" class="gnd"/>
  <line x1="1060" y1="770" x2="1060" y2="870" class="gnd"/>

  <!-- Resistor 330Ω + DIN -->
  <path class="signal" d="M250,840 L1010,840 L1010,810 L1080,810"/>
  <rect x="1015" y="803" width="40" height="14" fill="#161b2a" stroke="#a78bfa"/>
  <text class="small" x="1035" y="814" text-anchor="middle">330Ω</text>

  <!-- GND comum bus -->
  <line x1="20" y1="870" x2="1060" y2="870" class="gnd"/>
  <text class="small" x="540" y="888" text-anchor="middle" fill="#94a3b8">GND COMUM (barramento de retorno)</text>

  <!-- ============================================================ -->
  <!-- LEGENDA E LÓGICA                                              -->
  <!-- ============================================================ -->
  <rect class="legendbox" x="30" y="910" width="1340" height="80"/>
  <text class="section" x="50" y="932">⚙ Lógica fail-safe (relé NC):</text>
  <text class="small" x="50" y="950" fill="#e8ecf5">● REPOUSO/falha do ESP: GPIO4=LOW → MOSFET OFF → bobina sem corrente → contato NC FECHADO → MKS recebe 24V → motor OK</text>
  <text class="small" x="50" y="966" fill="#e8ecf5">● SHUTDOWN térmico (T ≥ 68°C): GPIO4=HIGH → MOSFET ON → bobina energiza → NC ABRE → MKS perde 24V → motor para com segurança</text>
  <text class="small" x="50" y="982" fill="#e8ecf5">● Diodo flyback 1N4007: em PARALELO com a bobina, com cátodo (faixa) no lado +24V → protege MOSFET contra spike indutivo</text>

  <!-- Legenda de cores -->
  <text class="section" x="780" y="932">🎨 Legenda de cores:</text>
  <line x1="780" y1="948" x2="810" y2="948" class="v24raw"/>
  <text class="small" x="816" y="952" fill="#e8ecf5">+24V bruto</text>
  <line x1="900" y1="948" x2="930" y2="948" class="v24sw"/>
  <text class="small" x="936" y="952" fill="#e8ecf5">+24V chaveado / +5V</text>
  <line x1="1080" y1="948" x2="1110" y2="948" class="v12"/>
  <text class="small" x="1116" y="952" fill="#e8ecf5">+12V / Bobina+</text>
  <line x1="1230" y1="948" x2="1260" y2="948" class="gnd"/>
  <text class="small" x="1266" y="952" fill="#e8ecf5">GND</text>
  <line x1="780" y1="970" x2="810" y2="970" class="signal"/>
  <text class="small" x="816" y="974" fill="#e8ecf5">Sinal/PWM</text>
  <line x1="900" y1="970" x2="930" y2="970" class="pulldown"/>
  <text class="small" x="936" y="974" fill="#e8ecf5">Pull-down</text>
  <line x1="1080" y1="970" x2="1110" y2="970" class="diode"/>
  <text class="small" x="1116" y="974" fill="#e8ecf5">Diodo / WS2812 Data</text>
</svg>
